<svg xmlns="http://www.w3.org/2000/svg" viewBox="0 0 420 420"><defs><style>.cls-1{fill:#2284b3;}.cls-2{fill:#fff;}</style></defs><g id="Layer_2" data-name="Layer 2"><g id="Layer_1-2" data-name="Layer 1"><rect class="cls-1" width="420" height="420" rx="50"/><path class="cls-2" d="M118.18,249.07H74V216.51H202v32.56H157.56V380.19H118.18Z"/><path class="cls-2" d="M227.3,216.51h42.46l26,70.62c3.3,9.46,5.94,19.8,9,29.92h1.1c3.3-10.12,5.94-20.46,9-29.92l25.08-70.62h42.68V380.19H346.76v-56.1c0-16.28,3.08-40.7,5.06-56.76h-.88L337.3,306.49l-22,59.84H293.74l-22.22-59.84-13.2-39.16h-.88c2,16.06,5.06,40.48,5.06,56.76v56.1H227.3Z"/></g></g></svg>