<svg xmlns="http://www.w3.org/2000/svg" viewBox="0 0 562 142"><defs><style>.cls-1{fill:none;stroke:#2284b3;stroke-miterlimit:10;stroke-width:2px;}.cls-2{fill:#66a7ce;}.cls-3{fill:#2284b3;}</style></defs><g id="Layer_2" data-name="Layer 2"><g id="Layer_1-2" data-name="Layer 1"><rect class="cls-1" x="1" y="1" width="560" height="140" rx="12"/><path class="cls-2" d="M125.67,59.9h-16V54.28h38.67V59.9h-16v47.16h-6.69Z"/><path class="cls-2" d="M150.58,123.12l1.3-5.26a9.25,9.25,0,0,0,3,.65c4.46,0,7.27-3.6,8.85-8.43l.87-3L148.85,68h6.84l8,21.75c1.16,3.38,2.52,7.41,3.75,10.94h.36c1.08-3.53,2.23-7.49,3.31-10.94l7-21.75h6.41L169.73,110.3C167,118,163,123.91,155.19,123.91A12.08,12.08,0,0,1,150.58,123.12Z"/><path class="cls-2" d="M192.05,68h5.4l.58,4.47h.21c3.53-2.89,7.92-5.48,12.46-5.48,10.08,0,15.55,7.92,15.55,20,0,13.39-8,21.1-17,21.1-3.53,0-7.27-1.66-10.8-4.54l.14,6.84v13.25h-6.55Zm27.36,19c0-8.64-2.88-14.47-10.29-14.47-3.32,0-6.7,1.87-10.52,5.4V98.42c3.53,3,7,4.1,9.58,4.1C214.66,102.52,219.41,96.69,219.41,87Z"/><path class="cls-2" d="M233.74,87.55c0-12.68,8.57-20.6,17.64-20.6,9.94,0,15.55,7.2,15.55,18.36a24.87,24.87,0,0,1-.29,3.75H240.29c.43,8.35,5.55,13.68,13,13.68a16.8,16.8,0,0,0,9.79-3.1l2.38,4.32a23.22,23.22,0,0,1-13,4C242.09,108,233.74,100.44,233.74,87.55Zm27.43-3.17c0-7.92-3.6-12.17-9.72-12.17-5.54,0-10.44,4.46-11.23,12.17Z"/><path class="cls-2" d="M273.77,87.55c0-12.68,8-20.6,16.92-20.6,4.61,0,7.56,1.73,11,4.61l-.36-6.77V49.74h6.55v57.32h-5.33l-.65-4.61h-.14c-3.1,3-7.2,5.55-11.88,5.55C280.11,108,273.77,100.58,273.77,87.55Zm27.58,9.57V76.6c-3.31-2.95-6.27-4.1-9.51-4.1-6.33,0-11.3,6-11.3,15,0,9.44,3.89,15,10.8,15C294.94,102.52,298.11,100.72,301.35,97.12Z"/><path class="cls-3" d="M320.79,53.49h13.89l8.5,23.11c1.08,3.1,1.94,6.48,2.95,9.79h.36c1.08-3.31,1.95-6.69,2.95-9.79l8.21-23.11h14v53.57H359.88V88.7c0-5.33,1-13.32,1.66-18.58h-.29l-4.46,12.82-7.2,19.58h-7.06l-7.27-19.58-4.32-12.82h-.29c.65,5.26,1.66,13.25,1.66,18.58v18.36H320.79Z"/><path class="cls-3" d="M381.12,95.61c0-8.64,6.77-13.32,22.76-15-.29-3.31-2-5.25-6.2-5.25-3.24,0-6.62,1.29-10.73,3.6l-4.46-8.43c5.4-3.24,11.23-5.4,17.64-5.4,10.58,0,16.56,5.91,16.56,18.72v23.26H406.25l-.94-4.1H405c-3.39,3-7.2,5.11-11.74,5.11C385.73,108.07,381.12,102.45,381.12,95.61Zm22.76-.72V88.34c-8,1.08-10.59,3.38-10.59,6.26,0,2.38,1.73,3.53,4.39,3.53S402,96.91,403.88,94.89Z"/><path class="cls-3" d="M424.25,86.61c0-13.61,10.08-21.53,21.53-21.53a17.75,17.75,0,0,1,12,4.39l-6,8.21a7.81,7.81,0,0,0-5.25-2.23c-5.62,0-9.15,4.32-9.15,11.16S441,97.7,446.07,97.7a11.74,11.74,0,0,0,7.13-2.88l4.89,8.42a20.41,20.41,0,0,1-13.47,4.83C433.11,108.07,424.25,100.15,424.25,86.61Z"/><path class="cls-3" d="M465.21,66.09h10.45l.86,7.13h.29c3-5.47,7.56-8.14,11.66-8.14a11.64,11.64,0,0,1,5,.86l-2.16,11a16.62,16.62,0,0,0-4.46-.65c-3,0-6.7,2-8.86,7.35v23.4H465.21Z"/><path class="cls-3" d="M495.46,86.61c0-13.61,9.64-21.53,20.08-21.53s20,7.92,20,21.53-9.65,21.46-20,21.46S495.46,100.15,495.46,86.61Zm27,0c0-6.84-2.16-11.16-6.92-11.16s-7,4.32-7,11.16,2.16,11.09,7,11.09S522.46,93.38,522.46,86.61Z"/></g></g></svg>