<svg xmlns="http://www.w3.org/2000/svg" viewBox="0 0 560 140"><defs><style>.cls-1{fill:#2284b3;}.cls-2{fill:#fff;}</style></defs><g id="Layer_2" data-name="Layer 2"><g id="Layer_1-2" data-name="Layer 1"><rect class="cls-1" width="560" height="140" rx="12"/><path class="cls-2" d="M122.51,58.69h-16V53.07h38.66v5.62h-16v47.16h-6.7Z"/><path class="cls-2" d="M147.42,121.91l1.3-5.26a9.25,9.25,0,0,0,2.95.65c4.46,0,7.27-3.6,8.86-8.43l.86-3-15.7-39.17h6.84l8,21.75c1.15,3.38,2.52,7.41,3.74,10.94h.36c1.08-3.53,2.23-7.49,3.31-10.94l7-21.75h6.41l-14.76,42.34c-2.74,7.7-6.77,13.61-14.55,13.61A12.16,12.16,0,0,1,147.42,121.91Z"/><path class="cls-2" d="M188.89,66.75h5.4l.58,4.47h.22c3.52-2.89,7.92-5.48,12.45-5.48,10.08,0,15.56,7.92,15.56,20,0,13.39-8,21.1-17,21.1-3.53,0-7.27-1.66-10.8-4.54l.15,6.84v13.25h-6.56Zm27.37,19c0-8.64-2.88-14.47-10.3-14.47-3.31,0-6.7,1.87-10.51,5.4V97.21c3.52,3,7,4.1,9.57,4.1C211.5,101.31,216.26,95.48,216.26,85.76Z"/><path class="cls-2" d="M230.58,86.34c0-12.68,8.57-20.6,17.64-20.6,9.94,0,15.56,7.2,15.56,18.36a26.26,26.26,0,0,1-.29,3.75H237.13c.44,8.35,5.55,13.68,13,13.68a16.83,16.83,0,0,0,9.8-3.1l2.37,4.32a23.19,23.19,0,0,1-13,4C238.93,106.79,230.58,99.23,230.58,86.34ZM258,83.17c0-7.92-3.6-12.17-9.73-12.17-5.54,0-10.44,4.46-11.23,12.17Z"/><path class="cls-2" d="M270.61,86.34c0-12.68,8-20.6,16.92-20.6,4.61,0,7.56,1.73,11,4.61l-.36-6.77v-15h6.55v57.32h-5.33l-.64-4.61h-.15c-3.09,3-7.2,5.55-11.88,5.55C277,106.79,270.61,99.37,270.61,86.34Zm27.58,9.57V75.39c-3.31-3-6.26-4.1-9.5-4.1-6.34,0-11.31,6-11.31,15,0,9.44,3.89,15,10.8,15C291.78,101.31,295,99.51,298.19,95.91Z"/><path class="cls-2" d="M317.63,52.28h13.9L340,75.39c1.08,3.1,1.94,6.48,3,9.79h.36c1.08-3.31,1.95-6.69,3-9.79l8.2-23.11h14v53.57H356.73V87.49a177.56,177.56,0,0,1,1.65-18.58h-.28l-4.47,12.82-7.2,19.58h-7.06L332.1,81.73l-4.32-12.82h-.29c.65,5.26,1.66,13.25,1.66,18.58v18.36H317.63Z"/><path class="cls-2" d="M378,94.4c0-8.64,6.77-13.32,22.76-15.05-.29-3.31-2-5.25-6.19-5.25-3.24,0-6.63,1.29-10.73,3.6l-4.47-8.43c5.4-3.24,11.23-5.4,17.64-5.4,10.59,0,16.57,5.9,16.57,18.72v23.26H403.09l-.93-4.1h-.29c-3.38,3-7.2,5.11-11.74,5.11C382.57,106.86,378,101.24,378,94.4Zm22.76-.72V87.13c-8,1.08-10.59,3.38-10.59,6.26,0,2.38,1.73,3.53,4.4,3.53S398.85,95.7,400.72,93.68Z"/><path class="cls-2" d="M421.09,85.4c0-13.61,10.08-21.53,21.53-21.53a17.73,17.73,0,0,1,11.95,4.39l-6,8.21a7.85,7.85,0,0,0-5.26-2.23c-5.62,0-9.14,4.32-9.14,11.16s3.67,11.09,8.71,11.09A11.74,11.74,0,0,0,450,93.61l4.89,8.42a20.4,20.4,0,0,1-13.46,4.83C430,106.86,421.09,98.94,421.09,85.4Z"/><path class="cls-2" d="M462.06,64.88H472.5l.86,7.13h.29c3-5.48,7.56-8.14,11.67-8.14a11.71,11.71,0,0,1,5,.86l-2.17,11a16.62,16.62,0,0,0-4.46-.65c-3,0-6.7,2-8.86,7.35v23.4H462.06Z"/><path class="cls-2" d="M492.3,85.4c0-13.61,9.65-21.53,20.09-21.53s20,7.92,20,21.53-9.64,21.46-20,21.46S492.3,98.94,492.3,85.4Zm27,0c0-6.84-2.16-11.16-6.91-11.16s-7,4.32-7,11.16,2.16,11.09,7,11.09S519.3,92.17,519.3,85.4Z"/></g></g></svg>