<svg xmlns="http://www.w3.org/2000/svg" viewBox="0 0 420 420"><defs><style>.cls-1{fill:#2284b3;}.cls-2{fill:#fff;}</style></defs><g id="Layer_2" data-name="Layer 2"><g id="Layer_1-2" data-name="Layer 1"><rect class="cls-1" width="420" height="420"/><path class="cls-2" d="M124.63,246.77H80.41V214.21h128v32.56H164V377.89H124.63Z"/><path class="cls-2" d="M233.75,214.21h42.46l26,70.62c3.3,9.46,5.94,19.8,9,29.92h1.1c3.3-10.12,5.94-20.46,9-29.92l25.08-70.62h42.68V377.89H353.21v-56.1c0-16.28,3.08-40.7,5.06-56.76h-.88l-13.64,39.16-22,59.84H300.19L278,304.19,264.77,265h-.88c2,16.06,5.06,40.48,5.06,56.76v56.1h-35.2Z"/></g></g></svg>