<svg xmlns="http://www.w3.org/2000/svg" viewBox="0 0 430 430"><defs><style>.cls-1{fill:none;stroke:#2284b3;stroke-miterlimit:10;stroke-width:10px;}.cls-2{fill:#66a7ce;}.cls-3{fill:#2284b3;}</style></defs><g id="Layer_2" data-name="Layer 2"><g id="Layer_1-2" data-name="Layer 1"><rect class="cls-1" x="5" y="5" width="420" height="420" rx="50"/><path class="cls-2" d="M121.18,246.07H77V213.51H205v32.56H160.56V377.19H121.18Z"/><path class="cls-3" d="M230.3,213.51h42.46l26,70.62c3.3,9.46,5.94,19.8,9,29.92h1.1c3.3-10.12,5.94-20.46,9-29.92l25.08-70.62h42.68V377.19H349.76v-56.1c0-16.28,3.08-40.7,5.06-56.76h-.88L340.3,303.49l-22,59.84H296.74l-22.22-59.84-13.2-39.16h-.88c2,16.06,5.06,40.48,5.06,56.76v56.1H230.3Z"/></g></g></svg>